<?xml version="1.0" encoding="UTF-8" standalone="no"?>
<svg width="76px" height="76px" viewBox="0 0 76 76" version="1.1" xmlns="http://www.w3.org/2000/svg" xmlns:xlink="http://www.w3.org/1999/xlink" xmlns:sketch="http://www.bohemiancoding.com/sketch/ns">
    <!-- Generator: Sketch 3.5.2 (25235) - http://www.bohemiancoding.com/sketch -->
    <title>Dribbble Circle + Dribbble</title>
    <desc>Created with Sketch.</desc>
    <defs></defs>
    <g id="Page-1" stroke="none" stroke-width="1" fill="none" fill-rule="evenodd" sketch:type="MSPage">
        <g id="Landing-Page" sketch:type="MSArtboardGroup" transform="translate(-446.000000, -5295.000000)">
            <g id="Contact" sketch:type="MSLayerGroup" transform="translate(277.000000, 4524.000000)">
                <g id="Dribbble-Circle-+-Dribbble" transform="translate(169.000000, 771.000000)" sketch:type="MSShapeGroup">
                    <path d="M75.931,37.966 C75.931,58.934 58.934,75.932 37.966,75.932 C16.998,75.932 0,58.934 0,37.966 C0,16.998 16.998,0 37.966,0 C58.934,0 75.931,16.998 75.931,37.966" id="Dribbble-Circle" fill="#E64C87"></path>
                    <path d="M54.86,30.727 C54.403,29.64 53.832,28.593 53.17,27.614 C52.516,26.643 51.762,25.729 50.934,24.901 C50.103,24.071 49.191,23.319 48.219,22.663 C47.24,21.999 46.192,21.432 45.105,20.97 C43.996,20.505 42.836,20.142 41.659,19.903 C40.451,19.655 39.209,19.528 37.967,19.528 C36.723,19.528 35.481,19.655 34.273,19.903 C33.095,20.142 31.935,20.505 30.827,20.97 C29.74,21.432 28.692,21.999 27.711,22.663 C26.74,23.319 25.828,24.071 24.998,24.901 C24.17,25.729 23.417,26.643 22.762,27.614 C22.1,28.593 21.528,29.64 21.071,30.727 C20.601,31.835 20.241,32.998 19.999,34.175 C19.754,35.38 19.629,36.622 19.629,37.864 C19.629,39.11 19.754,40.352 19.999,41.56 C20.241,42.737 20.601,43.897 21.071,45.003 C21.528,46.09 22.1,47.142 22.762,48.121 C23.417,49.091 24.17,50.001 24.998,50.834 C25.828,51.662 26.74,52.412 27.711,53.07 C28.692,53.732 29.74,54.301 30.827,54.76 C31.935,55.23 33.095,55.588 34.273,55.827 C35.481,56.077 36.723,56.203 37.967,56.203 C39.209,56.203 40.451,56.077 41.659,55.827 C42.836,55.588 43.996,55.23 45.105,54.76 C46.192,54.301 47.24,53.732 48.219,53.07 C49.191,52.412 50.103,51.662 50.934,50.834 C51.762,50.001 52.516,49.091 53.17,48.121 C53.832,47.142 54.403,46.09 54.86,45.003 C55.328,43.897 55.691,42.737 55.932,41.56 C56.178,40.352 56.303,39.11 56.303,37.864 C56.303,36.622 56.178,35.38 55.932,34.175 C55.691,32.998 55.328,31.835 54.86,30.727 L54.86,30.727 Z M37.967,22.206 C41.93,22.206 45.551,23.685 48.309,26.115 C48.27,26.173 46.041,29.569 40.128,31.784 C37.451,26.865 34.51,22.958 34.275,22.648 C35.459,22.361 36.695,22.206 37.967,22.206 L37.967,22.206 Z M34.215,22.661 C34.215,22.663 34.212,22.665 34.212,22.665 C34.212,22.665 34.193,22.67 34.165,22.674 C34.182,22.67 34.197,22.667 34.215,22.661 L34.215,22.661 Z M31.284,23.704 C31.493,23.983 34.389,27.909 37.1,32.726 C29.58,34.725 23.053,34.645 22.641,34.639 C23.657,29.787 26.915,25.766 31.284,23.704 L31.284,23.704 Z M26.318,48.33 C23.823,45.555 22.305,41.888 22.305,37.864 C22.305,37.698 22.313,37.534 22.318,37.37 C22.596,37.377 30.333,37.552 38.396,35.139 C38.845,36.016 39.274,36.911 39.666,37.802 C39.459,37.858 39.254,37.92 39.049,37.989 C30.598,40.719 26.311,48.322 26.311,48.322 C26.311,48.322 26.318,48.328 26.318,48.33 L26.318,48.33 Z M37.967,53.527 C34.268,53.527 30.871,52.241 28.19,50.096 C28.134,50.052 28.068,50.001 27.989,49.937 C28.068,50.001 28.134,50.052 28.19,50.096 C28.281,50.167 28.34,50.21 28.34,50.21 C28.34,50.21 31.342,43.664 40.63,40.428 C40.665,40.415 40.701,40.406 40.736,40.396 C42.939,46.12 43.848,50.916 44.08,52.285 C42.202,53.083 40.134,53.527 37.967,53.527 L37.967,53.527 Z M46.718,50.853 C46.558,49.909 45.723,45.312 43.668,39.669 C48.725,38.86 53.105,40.247 53.429,40.352 C52.732,44.717 50.233,48.479 46.718,50.853 L46.718,50.853 Z M42.715,37.196 C42.603,36.928 42.493,36.659 42.377,36.389 C42.051,35.622 41.7,34.863 41.335,34.117 C47.52,31.592 50.03,27.963 50.06,27.92 C52.255,30.587 53.586,33.994 53.623,37.709 C53.396,37.659 48.096,36.519 42.715,37.196 L42.715,37.196 Z" id="Dribbble" fill="#FFFFFF"></path>
                </g>
            </g>
        </g>
    </g>
</svg>