<?xml version="1.0" encoding="UTF-8" standalone="no"?>
<svg width="134px" height="134px" viewBox="0 0 134 134" version="1.1" xmlns="http://www.w3.org/2000/svg" xmlns:xlink="http://www.w3.org/1999/xlink" xmlns:sketch="http://www.bohemiancoding.com/sketch/ns">
    <!-- Generator: Sketch 3.5.2 (25235) - http://www.bohemiancoding.com/sketch -->
    <title>front-end</title>
    <desc>Created with Sketch.</desc>
    <defs></defs>
    <g id="Page-1" stroke="none" stroke-width="1" fill="none" fill-rule="evenodd" sketch:type="MSPage">
        <g id="Landing-Page" sketch:type="MSArtboardGroup" transform="translate(-533.000000, -1562.000000)">
            <g id="About" sketch:type="MSLayerGroup" transform="translate(220.000000, 820.000000)">
                <g id="Skills" transform="translate(77.000000, 597.000000)" sketch:type="MSShapeGroup">
                    <g id="Front-End" transform="translate(236.000000, 145.000000)">
                        <g id="front-end">
                            <circle id="Oval-2" fill="#F2B632" cx="67" cy="67" r="67"></circle>
                            <path d="M38,34 L43.2965,93.4 L67.06475,100 L90.894875,93.39175 L96.199625,34 L38.004125,34 L38,34 Z M86.35325,89.61325 L67.19675,94.922125 L67.19675,94.951 L67.14725,94.9345 L67.09775,94.951 L67.09775,94.922125 L47.94125,89.61325 L43.412,38.85925 L90.8825,38.85925 L86.35325,89.61325 L86.35325,89.61325 Z M76.04075,68.1715 L75.19925,77.61775 L67.06475,79.81225 L58.950875,77.626 L58.431125,71.80975 L51.1175,71.80975 L52.136375,83.2525 L67.093625,87.389875 L82.0055,83.2525 L84.006125,60.88675 L57.4535,60.88675 L56.789375,53.424625 L84.666125,53.424625 L85.317875,46.139875 L48.824,46.139875 L50.791625,68.1715 L76.04075,68.1715 Z" id="Shape" fill="#FFFFFF"></path>
                        </g>
                    </g>
                </g>
            </g>
        </g>
    </g>
</svg>