<?xml version="1.0" encoding="UTF-8" standalone="no"?>
<svg width="134px" height="134px" viewBox="0 0 134 134" version="1.1" xmlns="http://www.w3.org/2000/svg" xmlns:xlink="http://www.w3.org/1999/xlink" xmlns:sketch="http://www.bohemiancoding.com/sketch/ns">
    <!-- Generator: Sketch 3.5.2 (25235) - http://www.bohemiancoding.com/sketch -->
    <title>research</title>
    <desc>Created with Sketch.</desc>
    <defs></defs>
    <g id="Page-1" stroke="none" stroke-width="1" fill="none" fill-rule="evenodd" sketch:type="MSPage">
        <g id="Landing-Page" sketch:type="MSArtboardGroup" transform="translate(-769.000000, -1562.000000)">
            <g id="About" sketch:type="MSLayerGroup" transform="translate(220.000000, 820.000000)">
                <g id="Skills" transform="translate(77.000000, 597.000000)" sketch:type="MSShapeGroup">
                    <g id="Resarch" transform="translate(472.000000, 145.000000)">
                        <g id="research">
                            <circle id="Oval-2" fill="#F2B632" cx="67" cy="67" r="67"></circle>
                            <path d="M96.13575,85.85125 L75.75,51.881875 L75.75,38.125 L77.8125,38.125 C78.946875,38.125 79.875,37.196875 79.875,36.0625 C79.875,34.928125 78.946875,34 77.8125,34 L57.1875,34 C56.053125,34 55.125,34.928125 55.125,36.0625 C55.125,37.196875 56.053125,38.125 57.1875,38.125 L59.25,38.125 L59.25,51.881875 L38.86425,85.85125 C34.19475,93.631 37.8,100 46.875,100 L88.125,100 C97.2,100 100.80525,93.635125 96.13575,85.85125 L96.13575,85.85125 Z M50.03475,75.25 L63.375,53.01625 L63.375,38.125 L71.625,38.125 L71.625,53.01625 L84.96525,75.25 L50.03475,75.25 L50.03475,75.25 Z" id="Shape" fill="#FFFFFF"></path>
                        </g>
                    </g>
                </g>
            </g>
        </g>
    </g>
</svg>