<?xml version="1.0" encoding="UTF-8" standalone="no"?>
<svg width="76px" height="76px" viewBox="0 0 76 76" version="1.1" xmlns="http://www.w3.org/2000/svg" xmlns:xlink="http://www.w3.org/1999/xlink" xmlns:sketch="http://www.bohemiancoding.com/sketch/ns">
    <!-- Generator: Sketch 3.5.2 (25235) - http://www.bohemiancoding.com/sketch -->
    <title>Twitter Circle + Twitter</title>
    <desc>Created with Sketch.</desc>
    <defs></defs>
    <g id="Page-1" stroke="none" stroke-width="1" fill="none" fill-rule="evenodd" sketch:type="MSPage">
        <g id="Landing-Page" sketch:type="MSArtboardGroup" transform="translate(-562.000000, -5295.000000)">
            <g id="Contact" sketch:type="MSLayerGroup" transform="translate(277.000000, 4524.000000)">
                <g id="Twitter-Circle-+-Twitter" transform="translate(285.000000, 771.000000)" sketch:type="MSShapeGroup">
                    <path d="M75.932,37.966 C75.932,58.934 58.934,75.932 37.966,75.932 C16.998,75.932 0,58.934 0,37.966 C0,16.998 16.998,0 37.966,0 C58.934,0 75.932,16.998 75.932,37.966" id="Twitter-Circle" fill="#24A9E6"></path>
                    <path d="M55.199,22.726 C53.713,23.628 52.071,24.284 50.316,24.635 C48.918,23.105 46.92,22.149 44.708,22.149 C40.468,22.149 37.027,25.677 37.027,30.028 C37.027,30.645 37.093,31.245 37.225,31.822 C30.839,31.493 25.178,28.36 21.386,23.587 C20.724,24.755 20.346,26.11 20.346,27.552 C20.346,30.285 21.702,32.697 23.765,34.11 C22.507,34.072 21.32,33.714 20.282,33.127 L20.282,33.224 C20.282,37.043 22.931,40.229 26.449,40.95 C25.805,41.135 25.125,41.227 24.424,41.227 C23.929,41.227 23.446,41.18 22.978,41.088 C23.956,44.217 26.792,46.496 30.155,46.556 C27.526,48.671 24.211,49.931 20.612,49.931 C19.992,49.931 19.379,49.895 18.779,49.823 C22.179,52.055 26.22,53.36 30.558,53.36 C44.693,53.36 52.42,41.356 52.42,30.943 C52.42,30.6 52.414,30.258 52.401,29.922 C53.902,28.81 55.206,27.424 56.232,25.844 C54.856,26.47 53.374,26.894 51.82,27.084 C53.407,26.11 54.625,24.565 55.199,22.726" id="Twitter" fill="#FFFFFF"></path>
                </g>
            </g>
        </g>
    </g>
</svg>